<svg height="43.816" viewBox="0 0 142 43.816" width="142" xmlns="http://www.w3.org/2000/svg">
  <defs>
    <style>
      path {
        fill: #133f6e;
      }
      @media (prefers-color-scheme: dark) {
        path {
          fill: white;
        }
      }
      #dot {
        fill: #ea5b0b;
      }
    </style>
  </defs>
  <g transform="translate(-179 439.999)">
    <path id="dot" d="M340.178,80.8a7.034,7.034,0,1,1-7.034-7.034,7.035,7.035,0,0,1,7.034,7.034" transform="translate(-19.178 -484.976)"></path>
    <path d="M24.118,25.957V21.294a.4.4,0,0,0-.4-.393H6.615a.4.4,0,0,1-.4-.393V7.755a.4.4,0,0,1,.4-.393H26.577a.4.4,0,0,0,.4-.393V2.308a.4.4,0,0,0-.4-.393H.4a.4.4,0,0,0-.4.393V43.815a.4.4,0,0,0,.4.393H5.82a.4.4,0,0,0,.4-.393V26.742a.4.4,0,0,1,.4-.393H23.721a.4.4,0,0,0,.4-.393" transform="translate(179 -441.153)"></path>
    <path d="M104.725,38.242a14.957,14.957,0,0,1-11.111-4.809,16.853,16.853,0,0,1-4.351-11.524v-.125a16.657,16.657,0,0,1,4.37-11.465,14.934,14.934,0,0,1,11.028-4.743c4.453,0,8.138,1.448,12.135,4.8a.4.4,0,0,0,.559-.038l3.47-3.947a.389.389,0,0,0-.032-.55C117.4,2.84,112.76,0,104.725,0a21.993,21.993,0,0,0-15.881,6.43,21.9,21.9,0,0,0-6.18,15.478v.125A21.38,21.38,0,0,0,104.47,43.817c6.946,0,11.9-2.033,16.915-6.985l-.211-.211-3.453-3.453a.4.4,0,0,0-.545-.014c-3.527,3.083-7.112,5.088-12.452,5.088" transform="translate(128.657 -440)"></path>
    <path d="M226.833,25.323a.4.4,0,0,1,.4.393v8.937l-.321.236a18.991,18.991,0,0,1-11.2,3.478c-9.365,0-15.906-6.768-15.906-16.458v-.125a16.74,16.74,0,0,1,4.341-11.389,14.628,14.628,0,0,1,10.866-4.818,18.194,18.194,0,0,1,12.036,4.091.4.4,0,0,0,.549-.055l3.422-4.029a.392.392,0,0,0-.059-.564C226.372,1.467,221.755,0,215.324,0a22.032,22.032,0,0,0-15.912,6.5A21.853,21.853,0,0,0,193.2,21.909v.126a21.751,21.751,0,0,0,6.081,15.529c4.071,4.091,9.663,6.253,16.17,6.253a27.628,27.628,0,0,0,17.6-6.295.388.388,0,0,0,.144-.3v-16.7a.4.4,0,0,0-.4-.393H216.264a.4.4,0,0,0-.4.393v4.414a.4.4,0,0,0,.4.393h10.569Z" transform="translate(61.324 -440)"></path>
  </g>
</svg>
